<svg width="258" height="28" viewBox="0 0 258 28" fill="none" xmlns="http://www.w3.org/2000/svg">
<path d="M252.629 22.036V6.972H256.997V22.036H252.629ZM254.813 4.872C254.01 4.872 253.357 4.63867 252.853 4.172C252.349 3.70533 252.097 3.12667 252.097 2.436C252.097 1.74533 252.349 1.16667 252.853 0.700001C253.357 0.233333 254.01 0 254.813 0C255.615 0 256.269 0.224 256.773 0.672001C257.277 1.10133 257.529 1.66133 257.529 2.352C257.529 3.08 257.277 3.68667 256.773 4.172C256.287 4.63867 255.634 4.872 254.813 4.872Z" fill="#2E2E2E"/>
<path d="M242.425 6.74805C243.62 6.74805 244.684 6.99071 245.617 7.47605C246.569 7.94271 247.316 8.67071 247.857 9.66005C248.399 10.6307 248.669 11.8814 248.669 13.412V22.036H244.301V14.084C244.301 12.8707 244.031 11.9747 243.489 11.396C242.967 10.8174 242.22 10.528 241.249 10.528C240.559 10.528 239.933 10.6774 239.373 10.976C238.832 11.256 238.403 11.6947 238.085 12.292C237.787 12.8894 237.637 13.6547 237.637 14.588V22.036H233.269V6.97205H237.441V11.144L236.657 9.88405C237.199 8.87605 237.973 8.10138 238.981 7.56005C239.989 7.01871 241.137 6.74805 242.425 6.74805Z" fill="#2E2E2E"/>
<path d="M220.219 22.372C217.438 22.372 215.263 21.5974 213.695 20.048C212.127 18.4987 211.343 16.2867 211.343 13.412V2.43604H215.879V13.244C215.879 15.1107 216.262 16.4547 217.027 17.276C217.792 18.0974 218.866 18.508 220.247 18.508C221.628 18.508 222.702 18.0974 223.467 17.276C224.232 16.4547 224.615 15.1107 224.615 13.244V2.43604H229.095V13.412C229.095 16.2867 228.311 18.4987 226.743 20.048C225.175 21.5974 223 22.372 220.219 22.372Z" fill="#2E2E2E"/>
<path d="M200.999 6.74805C202.194 6.74805 203.258 6.99071 204.191 7.47605C205.143 7.94271 205.89 8.67071 206.432 9.66005C206.973 10.6307 207.243 11.8814 207.243 13.412V22.036H202.876V14.084C202.876 12.8707 202.605 11.9747 202.064 11.396C201.541 10.8174 200.794 10.528 199.824 10.528C199.133 10.528 198.507 10.6774 197.947 10.976C197.406 11.256 196.977 11.6947 196.66 12.292C196.361 12.8894 196.212 13.6547 196.212 14.588V22.036H191.844V6.97205H196.016V11.144L195.232 9.88405C195.773 8.87605 196.547 8.10138 197.555 7.56005C198.563 7.01871 199.711 6.74805 200.999 6.74805Z" fill="#C83438"/>
<path d="M183.422 22.036V6.972H187.79V22.036H183.422ZM185.606 4.872C184.803 4.872 184.15 4.63867 183.646 4.172C183.142 3.70533 182.89 3.12667 182.89 2.436C182.89 1.74533 183.142 1.16667 183.646 0.700001C184.15 0.233333 184.803 0 185.606 0C186.408 0 187.062 0.224 187.566 0.672001C188.07 1.10133 188.322 1.66133 188.322 2.352C188.322 3.08 188.07 3.68667 187.566 4.172C187.08 4.63867 186.427 4.872 185.606 4.872Z" fill="#C83438"/>
<path d="M168.883 22.036L160.427 2.43604H165.327L172.719 19.796H169.835L177.339 2.43604H181.847L173.363 22.036H168.883Z" fill="#C83438"/>
<path d="M144.867 22.176C143.336 22.176 141.992 21.8587 140.835 21.224C139.678 20.5707 138.772 19.684 138.119 18.564C137.466 17.4254 137.139 16.128 137.139 14.672C137.139 13.216 137.447 11.928 138.063 10.808C138.698 9.68804 139.556 8.81071 140.639 8.17604C141.74 7.52271 142.972 7.19604 144.335 7.19604C145.716 7.19604 146.939 7.51338 148.003 8.14804C149.086 8.76404 149.935 9.64138 150.551 10.78C151.167 11.9 151.475 13.1974 151.475 14.672C151.475 14.7654 151.466 14.868 151.447 14.98C151.447 15.0734 151.447 15.176 151.447 15.288H138.651V13.804H150.383L149.599 14.392C149.599 13.328 149.366 12.3854 148.899 11.564C148.451 10.724 147.835 10.0707 147.051 9.60404C146.267 9.13738 145.362 8.90405 144.335 8.90405C143.327 8.90405 142.422 9.13738 141.619 9.60404C140.816 10.0707 140.191 10.724 139.743 11.564C139.295 12.404 139.071 13.3654 139.071 14.448V14.756C139.071 15.876 139.314 16.8654 139.799 17.724C140.303 18.564 140.994 19.2267 141.871 19.712C142.767 20.1787 143.784 20.412 144.923 20.412C145.819 20.412 146.65 20.2534 147.415 19.936C148.199 19.6187 148.871 19.1334 149.431 18.48L150.551 19.768C149.898 20.552 149.076 21.1494 148.087 21.56C147.116 21.9707 146.043 22.176 144.867 22.176Z" fill="#2E548A"/>
<path d="M129.196 22.176C127.74 22.176 126.433 21.8587 125.276 21.224C124.137 20.5707 123.241 19.684 122.588 18.564C121.934 17.4254 121.608 16.128 121.608 14.672C121.608 13.1974 121.934 11.9 122.588 10.78C123.241 9.66004 124.137 8.78271 125.276 8.14804C126.433 7.51338 127.74 7.19604 129.196 7.19604C130.446 7.19604 131.576 7.43871 132.584 7.92405C133.592 8.40938 134.385 9.13738 134.964 10.108L133.48 11.116C132.976 10.3694 132.35 9.81871 131.604 9.46404C130.857 9.10938 130.045 8.93204 129.168 8.93204C128.122 8.93204 127.18 9.17471 126.34 9.66004C125.5 10.1267 124.837 10.7894 124.352 11.648C123.866 12.5067 123.624 13.5147 123.624 14.672C123.624 15.8294 123.866 16.8374 124.352 17.696C124.837 18.5547 125.5 19.2267 126.34 19.712C127.18 20.1787 128.122 20.412 129.168 20.412C130.045 20.412 130.857 20.2347 131.604 19.88C132.35 19.5254 132.976 18.984 133.48 18.256L134.964 19.264C134.385 20.216 133.592 20.944 132.584 21.448C131.576 21.9334 130.446 22.176 129.196 22.176Z" fill="#2E548A"/>
<path d="M111.674 7.19604C112.868 7.19604 113.914 7.42938 114.81 7.89605C115.724 8.34404 116.434 9.03471 116.938 9.96804C117.46 10.9014 117.722 12.0774 117.722 13.496V22.036H115.734V13.692C115.734 12.1427 115.342 10.976 114.558 10.192C113.792 9.38938 112.71 8.98804 111.31 8.98804C110.264 8.98804 109.35 9.20271 108.566 9.63204C107.8 10.0427 107.203 10.6494 106.774 11.452C106.363 12.236 106.158 13.188 106.158 14.308V22.036H104.17V7.33604H106.074V11.368L105.766 10.612C106.232 9.54805 106.979 8.71738 108.006 8.12004C109.032 7.50404 110.255 7.19604 111.674 7.19604Z" fill="#2E548A"/>
<path d="M93.5154 22.176C91.9847 22.176 90.6407 21.8587 89.4834 21.224C88.326 20.5707 87.4207 19.684 86.7673 18.564C86.114 17.4254 85.7874 16.128 85.7874 14.672C85.7874 13.216 86.0953 11.928 86.7113 10.808C87.346 9.68804 88.2047 8.81071 89.2874 8.17604C90.3887 7.52271 91.6207 7.19604 92.9834 7.19604C94.3647 7.19604 95.5874 7.51338 96.6514 8.14804C97.734 8.76404 98.5834 9.64138 99.1994 10.78C99.8154 11.9 100.123 13.1974 100.123 14.672C100.123 14.7654 100.114 14.868 100.095 14.98C100.095 15.0734 100.095 15.176 100.095 15.288H87.2994V13.804H99.0313L98.2474 14.392C98.2474 13.328 98.014 12.3854 97.5474 11.564C97.0994 10.724 96.4833 10.0707 95.6993 9.60404C94.9153 9.13738 94.01 8.90405 92.9834 8.90405C91.9754 8.90405 91.07 9.13738 90.2673 9.60404C89.4647 10.0707 88.8393 10.724 88.3913 11.564C87.9433 12.404 87.7194 13.3654 87.7194 14.448V14.756C87.7194 15.876 87.962 16.8654 88.4473 17.724C88.9513 18.564 89.642 19.2267 90.5193 19.712C91.4153 20.1787 92.4327 20.412 93.5714 20.412C94.4674 20.412 95.298 20.2534 96.0634 19.936C96.8474 19.6187 97.5194 19.1334 98.0794 18.48L99.1994 19.768C98.546 20.552 97.7247 21.1494 96.7354 21.56C95.7647 21.9707 94.6914 22.176 93.5154 22.176Z" fill="#2E548A"/>
<path d="M79.7518 22.036V7.33601H81.7398V22.036H79.7518ZM80.7598 4.08801C80.3492 4.08801 80.0038 3.94801 79.7238 3.66801C79.4438 3.38801 79.3038 3.05201 79.3038 2.66001C79.3038 2.26801 79.4438 1.94134 79.7238 1.68001C80.0038 1.40001 80.3492 1.26001 80.7598 1.26001C81.1705 1.26001 81.5158 1.39068 81.7958 1.65201C82.0758 1.91334 82.2158 2.24001 82.2158 2.63201C82.2158 3.04268 82.0758 3.38801 81.7958 3.66801C81.5345 3.94801 81.1892 4.08801 80.7598 4.08801Z" fill="#2E548A"/>
<path d="M68.7323 22.036V7.33604H70.6363V11.34L70.4403 10.64C70.851 9.52005 71.5416 8.67071 72.5123 8.09204C73.483 7.49471 74.687 7.19604 76.1243 7.19604V9.12804C76.0496 9.12804 75.975 9.12804 75.9003 9.12804C75.8256 9.10938 75.751 9.10004 75.6763 9.10004C74.127 9.10004 72.9136 9.57605 72.0363 10.528C71.159 11.4614 70.7203 12.796 70.7203 14.532V22.036H68.7323Z" fill="#2E548A"/>
<path d="M58.0779 22.176C56.5472 22.176 55.2032 21.8587 54.0459 21.224C52.8885 20.5707 51.9832 19.684 51.3299 18.564C50.6765 17.4254 50.3499 16.128 50.3499 14.672C50.3499 13.216 50.6579 11.928 51.2739 10.808C51.9085 9.68804 52.7672 8.81071 53.8499 8.17604C54.9512 7.52271 56.1832 7.19604 57.5459 7.19604C58.9272 7.19604 60.1499 7.51338 61.2139 8.14804C62.2965 8.76404 63.1459 9.64138 63.7619 10.78C64.3779 11.9 64.6859 13.1974 64.6859 14.672C64.6859 14.7654 64.6765 14.868 64.6579 14.98C64.6579 15.0734 64.6579 15.176 64.6579 15.288H51.8619V13.804H63.5938L62.8099 14.392C62.8099 13.328 62.5765 12.3854 62.1099 11.564C61.6619 10.724 61.0459 10.0707 60.2619 9.60404C59.4779 9.13738 58.5725 8.90405 57.5459 8.90405C56.5379 8.90405 55.6325 9.13738 54.8299 9.60404C54.0272 10.0707 53.4019 10.724 52.9539 11.564C52.5059 12.404 52.2819 13.3654 52.2819 14.448V14.756C52.2819 15.876 52.5245 16.8654 53.0099 17.724C53.5139 18.564 54.2045 19.2267 55.0819 19.712C55.9779 20.1787 56.9952 20.412 58.1339 20.412C59.0299 20.412 59.8605 20.2534 60.6259 19.936C61.4099 19.6187 62.0819 19.1334 62.6419 18.48L63.7619 19.768C63.1085 20.552 62.2872 21.1494 61.2979 21.56C60.3272 21.9707 59.2539 22.176 58.0779 22.176Z" fill="#2E548A"/>
<path d="M40.4453 22.176C39.176 22.176 38.028 21.8867 37.0013 21.308C35.9746 20.7107 35.1533 19.8614 34.5373 18.76C33.94 17.64 33.6413 16.2774 33.6413 14.672C33.6413 13.0667 33.94 11.7134 34.5373 10.612C35.1346 9.49205 35.9466 8.64271 36.9733 8.06404C38 7.48538 39.1573 7.19604 40.4453 7.19604C41.8453 7.19604 43.096 7.51338 44.1973 8.14804C45.3173 8.76404 46.1946 9.64138 46.8293 10.78C47.464 11.9 47.7813 13.1974 47.7813 14.672C47.7813 16.1654 47.464 17.472 46.8293 18.592C46.1946 19.712 45.3173 20.5894 44.1973 21.224C43.096 21.8587 41.8453 22.176 40.4453 22.176ZM32.8573 27.468V7.33604H34.7613V11.76L34.5653 14.7L34.8453 17.668V27.468H32.8573ZM40.3053 20.412C41.3506 20.412 42.284 20.1787 43.1053 19.712C43.9266 19.2267 44.58 18.5547 45.0653 17.696C45.5506 16.8187 45.7933 15.8107 45.7933 14.672C45.7933 13.5334 45.5506 12.5347 45.0653 11.676C44.58 10.8174 43.9266 10.1454 43.1053 9.66004C42.284 9.17471 41.3506 8.93204 40.3053 8.93204C39.26 8.93204 38.3173 9.17471 37.4773 9.66004C36.656 10.1454 36.0026 10.8174 35.5173 11.676C35.0506 12.5347 34.8173 13.5334 34.8173 14.672C34.8173 15.8107 35.0506 16.8187 35.5173 17.696C36.0026 18.5547 36.656 19.2267 37.4773 19.712C38.3173 20.1787 39.26 20.412 40.3053 20.412Z" fill="#2E548A"/>
<path d="M15.6603 22.0361L21.8763 13.9721L21.8483 14.9521L15.9403 7.33606H18.1803L23.0243 13.6361L22.1843 13.6081L27.0283 7.33606H29.2123L23.2483 15.0361L23.2763 13.9721L29.5483 22.0361H27.2803L22.1563 15.3161L22.9403 15.4281L17.9003 22.0361H15.6603Z" fill="#2E548A"/>
<path d="M1.848 11.2H12.208V12.964H1.848V11.2ZM2.072 20.244H13.86V22.036H0V2.43604H13.44V4.22804H2.072V20.244Z" fill="#2E548A"/>
</svg>
