<svg width="198" height="22" viewBox="0 0 198 22" fill="none" xmlns="http://www.w3.org/2000/svg">
<path d="M194.133 17V6.24001H197.253V17H194.133ZM195.693 4.74001C195.12 4.74001 194.653 4.57334 194.293 4.24001C193.933 3.90668 193.753 3.49334 193.753 3.00001C193.753 2.50668 193.933 2.09334 194.293 1.76001C194.653 1.42668 195.12 1.26001 195.693 1.26001C196.266 1.26001 196.733 1.42001 197.093 1.74001C197.453 2.04668 197.633 2.44668 197.633 2.94001C197.633 3.46001 197.453 3.89334 197.093 4.24001C196.746 4.57334 196.28 4.74001 195.693 4.74001Z" fill="#2E2E2E"/>
<path d="M186.845 6.08008C187.699 6.08008 188.459 6.25341 189.125 6.60008C189.805 6.93341 190.339 7.45341 190.725 8.16008C191.112 8.85341 191.305 9.74675 191.305 10.8401V17.0001H188.185V11.3201C188.185 10.4534 187.992 9.81341 187.605 9.40008C187.232 8.98674 186.699 8.78008 186.005 8.78008C185.512 8.78008 185.065 8.88675 184.665 9.10008C184.279 9.30008 183.972 9.61341 183.745 10.0401C183.532 10.4667 183.425 11.0134 183.425 11.6801V17.0001H180.305V6.24008H183.285V9.22008L182.725 8.32008C183.112 7.60008 183.665 7.04674 184.385 6.66008C185.105 6.27341 185.925 6.08008 186.845 6.08008Z" fill="#2E2E2E"/>
<path d="M170.984 17.24C168.997 17.24 167.444 16.6867 166.324 15.58C165.204 14.4733 164.644 12.8933 164.644 10.84V3H167.884V10.72C167.884 12.0533 168.157 13.0133 168.704 13.6C169.25 14.1867 170.017 14.48 171.004 14.48C171.99 14.48 172.757 14.1867 173.304 13.6C173.85 13.0133 174.124 12.0533 174.124 10.72V3H177.324V10.84C177.324 12.8933 176.764 14.4733 175.644 15.58C174.524 16.6867 172.97 17.24 170.984 17.24Z" fill="#2E2E2E"/>
<path d="M157.255 6.08008C158.109 6.08008 158.869 6.25341 159.535 6.60008C160.215 6.93341 160.749 7.45341 161.135 8.16008C161.522 8.85341 161.715 9.74675 161.715 10.8401V17.0001H158.595V11.3201C158.595 10.4534 158.402 9.81341 158.015 9.40008C157.642 8.98674 157.109 8.78008 156.415 8.78008C155.922 8.78008 155.475 8.88675 155.075 9.10008C154.689 9.30008 154.382 9.61341 154.155 10.0401C153.942 10.4667 153.835 11.0134 153.835 11.6801V17.0001H150.715V6.24008H153.695V9.22008L153.135 8.32008C153.522 7.60008 154.075 7.04674 154.795 6.66008C155.515 6.27341 156.335 6.08008 157.255 6.08008Z" fill="#C83438"/>
<path d="M144.699 17V6.24001H147.819V17H144.699ZM146.259 4.74001C145.686 4.74001 145.219 4.57334 144.859 4.24001C144.499 3.90668 144.319 3.49334 144.319 3.00001C144.319 2.50668 144.499 2.09334 144.859 1.76001C145.219 1.42668 145.686 1.26001 146.259 1.26001C146.833 1.26001 147.299 1.42001 147.659 1.74001C148.019 2.04668 148.199 2.44668 148.199 2.94001C148.199 3.46001 148.019 3.89334 147.659 4.24001C147.313 4.57334 146.846 4.74001 146.259 4.74001Z" fill="#C83438"/>
<path d="M134.315 17L128.275 3H131.775L137.055 15.4H134.995L140.355 3H143.575L137.515 17H134.315Z" fill="#C83438"/>
<path d="M114.332 17.11C113.129 17.11 112.073 16.8606 111.164 16.362C110.254 15.8486 109.543 15.152 109.03 14.272C108.516 13.3773 108.26 12.358 108.26 11.214C108.26 10.07 108.502 9.05797 108.986 8.17797C109.484 7.29797 110.159 6.60863 111.01 6.10997C111.875 5.59663 112.843 5.33997 113.914 5.33997C114.999 5.33997 115.96 5.5893 116.796 6.08797C117.646 6.57197 118.314 7.2613 118.798 8.15597C119.282 9.03597 119.524 10.0553 119.524 11.214C119.524 11.2873 119.516 11.368 119.502 11.456C119.502 11.5293 119.502 11.61 119.502 11.698H109.448V10.532H118.666L118.05 10.994C118.05 10.158 117.866 9.4173 117.5 8.77197C117.148 8.11197 116.664 7.59863 116.048 7.23197C115.432 6.8653 114.72 6.68197 113.914 6.68197C113.122 6.68197 112.41 6.8653 111.78 7.23197C111.149 7.59863 110.658 8.11197 110.306 8.77197C109.954 9.43197 109.778 10.1873 109.778 11.038V11.28C109.778 12.16 109.968 12.9373 110.35 13.612C110.746 14.272 111.288 14.7926 111.978 15.174C112.682 15.5406 113.481 15.724 114.376 15.724C115.08 15.724 115.732 15.5993 116.334 15.35C116.95 15.1006 117.478 14.7193 117.918 14.206L118.798 15.218C118.284 15.834 117.639 16.3033 116.862 16.626C116.099 16.9486 115.256 17.11 114.332 17.11Z" fill="#2E548A"/>
<path d="M102.019 17.11C100.875 17.11 99.848 16.8606 98.9386 16.362C98.044 15.8486 97.34 15.152 96.8266 14.272C96.3133 13.3773 96.0566 12.358 96.0566 11.214C96.0566 10.0553 96.3133 9.03597 96.8266 8.15597C97.34 7.27597 98.044 6.58663 98.9386 6.08797C99.848 5.5893 100.875 5.33997 102.019 5.33997C103.001 5.33997 103.889 5.53063 104.681 5.91197C105.473 6.2933 106.096 6.8653 106.551 7.62797L105.385 8.41997C104.989 7.8333 104.497 7.40063 103.911 7.12197C103.324 6.8433 102.686 6.70397 101.997 6.70397C101.175 6.70397 100.435 6.89463 99.7746 7.27597C99.1146 7.64263 98.594 8.1633 98.2126 8.83797C97.8313 9.51263 97.6406 10.3046 97.6406 11.214C97.6406 12.1233 97.8313 12.9153 98.2126 13.59C98.594 14.2646 99.1146 14.7926 99.7746 15.174C100.435 15.5406 101.175 15.724 101.997 15.724C102.686 15.724 103.324 15.5846 103.911 15.306C104.497 15.0273 104.989 14.602 105.385 14.03L106.551 14.822C106.096 15.57 105.473 16.142 104.681 16.538C103.889 16.9193 103.001 17.11 102.019 17.11Z" fill="#2E548A"/>
<path d="M88.2515 5.33997C89.1901 5.33997 90.0115 5.5233 90.7155 5.88997C91.4341 6.24197 91.9915 6.78463 92.3875 7.51797C92.7981 8.2513 93.0035 9.1753 93.0035 10.29V17H91.4415V10.444C91.4415 9.22663 91.1335 8.30997 90.5175 7.69397C89.9161 7.0633 89.0655 6.74797 87.9655 6.74797C87.1441 6.74797 86.4255 6.91663 85.8095 7.25397C85.2081 7.57663 84.7388 8.0533 84.4015 8.68397C84.0788 9.29997 83.9175 10.048 83.9175 10.928V17H82.3555V5.44997H83.8515V8.61797L83.6095 8.02397C83.9761 7.18797 84.5628 6.5353 85.3695 6.06597C86.1761 5.58197 87.1368 5.33997 88.2515 5.33997Z" fill="#2E548A"/>
<path d="M73.9841 17.11C72.7814 17.11 71.7254 16.8606 70.8161 16.362C69.9068 15.8486 69.1954 15.152 68.6821 14.272C68.1688 13.3773 67.9121 12.358 67.9121 11.214C67.9121 10.07 68.1541 9.05797 68.6381 8.17797C69.1368 7.29797 69.8114 6.60863 70.6621 6.10997C71.5274 5.59663 72.4954 5.33997 73.5661 5.33997C74.6514 5.33997 75.6121 5.5893 76.4481 6.08797C77.2988 6.57197 77.9661 7.2613 78.4501 8.15597C78.9341 9.03597 79.1761 10.0553 79.1761 11.214C79.1761 11.2873 79.1688 11.368 79.1541 11.456C79.1541 11.5293 79.1541 11.61 79.1541 11.698H69.1001V10.532H78.3181L77.7021 10.994C77.7021 10.158 77.5188 9.4173 77.1521 8.77197C76.8001 8.11197 76.3161 7.59863 75.7001 7.23197C75.0841 6.8653 74.3728 6.68197 73.5661 6.68197C72.7741 6.68197 72.0628 6.8653 71.4321 7.23197C70.8014 7.59863 70.3101 8.11197 69.9581 8.77197C69.6061 9.43197 69.4301 10.1873 69.4301 11.038V11.28C69.4301 12.16 69.6208 12.9373 70.0021 13.612C70.3981 14.272 70.9408 14.7926 71.6301 15.174C72.3341 15.5406 73.1334 15.724 74.0281 15.724C74.7321 15.724 75.3848 15.5993 75.9861 15.35C76.6021 15.1006 77.1301 14.7193 77.5701 14.206L78.4501 15.218C77.9368 15.834 77.2914 16.3033 76.5141 16.626C75.7514 16.9486 74.9081 17.11 73.9841 17.11Z" fill="#2E548A"/>
<path d="M63.1699 17V5.45003H64.7319V17H63.1699ZM63.9619 2.89803C63.6392 2.89803 63.3679 2.78803 63.1479 2.56803C62.9279 2.34803 62.8179 2.08403 62.8179 1.77603C62.8179 1.46802 62.9279 1.21136 63.1479 1.00602C63.3679 0.786025 63.6392 0.676025 63.9619 0.676025C64.2845 0.676025 64.5559 0.778692 64.7759 0.984025C64.9959 1.18936 65.1059 1.44603 65.1059 1.75403C65.1059 2.07669 64.9959 2.34803 64.7759 2.56803C64.5705 2.78803 64.2992 2.89803 63.9619 2.89803Z" fill="#2E548A"/>
<path d="M54.5117 17V5.44997H56.0077V8.59597L55.8537 8.04597C56.1764 7.16597 56.719 6.49863 57.4817 6.04397C58.2444 5.57463 59.1904 5.33997 60.3197 5.33997V6.85797C60.2611 6.85797 60.2024 6.85797 60.1437 6.85797C60.0851 6.8433 60.0264 6.83597 59.9677 6.83597C58.7504 6.83597 57.7971 7.20997 57.1077 7.95797C56.4184 8.6913 56.0737 9.73997 56.0737 11.104V17H54.5117Z" fill="#2E548A"/>
<path d="M46.1404 17.11C44.9377 17.11 43.8817 16.8606 42.9724 16.362C42.063 15.8486 41.3517 15.152 40.8384 14.272C40.325 13.3773 40.0684 12.358 40.0684 11.214C40.0684 10.07 40.3104 9.05797 40.7944 8.17797C41.293 7.29797 41.9677 6.60863 42.8184 6.10997C43.6837 5.59663 44.6517 5.33997 45.7224 5.33997C46.8077 5.33997 47.7684 5.5893 48.6044 6.08797C49.455 6.57197 50.1224 7.2613 50.6064 8.15597C51.0904 9.03597 51.3324 10.0553 51.3324 11.214C51.3324 11.2873 51.325 11.368 51.3104 11.456C51.3104 11.5293 51.3104 11.61 51.3104 11.698H41.2564V10.532H50.4744L49.8584 10.994C49.8584 10.158 49.675 9.4173 49.3084 8.77197C48.9564 8.11197 48.4724 7.59863 47.8564 7.23197C47.2404 6.8653 46.529 6.68197 45.7224 6.68197C44.9304 6.68197 44.219 6.8653 43.5884 7.23197C42.9577 7.59863 42.4664 8.11197 42.1144 8.77197C41.7624 9.43197 41.5864 10.1873 41.5864 11.038V11.28C41.5864 12.16 41.777 12.9373 42.1584 13.612C42.5544 14.272 43.097 14.7926 43.7864 15.174C44.4904 15.5406 45.2897 15.724 46.1844 15.724C46.8884 15.724 47.541 15.5993 48.1424 15.35C48.7584 15.1006 49.2864 14.7193 49.7264 14.206L50.6064 15.218C50.093 15.834 49.4477 16.3033 48.6704 16.626C47.9077 16.9486 47.0644 17.11 46.1404 17.11Z" fill="#2E548A"/>
<path d="M32.2862 17.11C31.2889 17.11 30.3869 16.8826 29.5802 16.428C28.7736 15.9586 28.1282 15.2913 27.6442 14.426C27.1749 13.546 26.9402 12.4753 26.9402 11.214C26.9402 9.95263 27.1749 8.8893 27.6442 8.02397C28.1136 7.14397 28.7516 6.47663 29.5582 6.02197C30.3649 5.5673 31.2742 5.33997 32.2862 5.33997C33.3862 5.33997 34.3689 5.5893 35.2342 6.08797C36.1142 6.57197 36.8036 7.2613 37.3022 8.15597C37.8009 9.03597 38.0502 10.0553 38.0502 11.214C38.0502 12.3873 37.8009 13.414 37.3022 14.294C36.8036 15.174 36.1142 15.8633 35.2342 16.362C34.3689 16.8606 33.3862 17.11 32.2862 17.11ZM26.3242 21.268V5.44997H27.8202V8.92597L27.6662 11.236L27.8862 13.568V21.268H26.3242ZM32.1762 15.724C32.9976 15.724 33.7309 15.5406 34.3762 15.174C35.0216 14.7926 35.5349 14.2646 35.9162 13.59C36.2976 12.9006 36.4882 12.1086 36.4882 11.214C36.4882 10.3193 36.2976 9.53463 35.9162 8.85997C35.5349 8.1853 35.0216 7.6573 34.3762 7.27597C33.7309 6.89463 32.9976 6.70397 32.1762 6.70397C31.3549 6.70397 30.6142 6.89463 29.9542 7.27597C29.3089 7.6573 28.7956 8.1853 28.4142 8.85997C28.0476 9.53463 27.8642 10.3193 27.8642 11.214C27.8642 12.1086 28.0476 12.9006 28.4142 13.59C28.7956 14.2646 29.3089 14.7926 29.9542 15.174C30.6142 15.5406 31.3549 15.724 32.1762 15.724Z" fill="#2E548A"/>
<path d="M12.8125 17.0001L17.6965 10.6641L17.6745 11.4341L13.0325 5.45007H14.7925L18.5985 10.4001L17.9385 10.3781L21.7445 5.45007H23.4605L18.7745 11.5001L18.7965 10.6641L23.7245 17.0001H21.9425L17.9165 11.7201L18.5325 11.8081L14.5725 17.0001H12.8125Z" fill="#2E548A"/>
<path d="M1.95981 8.48598H10.0998V9.87198H1.95981V8.48598ZM2.13581 15.592H11.3978V17H0.507812V1.59998H11.0678V3.00798H2.13581V15.592Z" fill="#2E548A"/>
</svg>
