<svg width="271" height="59" viewBox="0 0 271 59" fill="none" xmlns="http://www.w3.org/2000/svg">
<mask id="mask0_613_541" style="mask-type:luminance" maskUnits="userSpaceOnUse" x="0" y="0" width="271" height="59">
<path d="M270.583 0H0V58.3H270.583V0Z" fill="white"/>
</mask>
<g mask="url(#mask0_613_541)">
<mask id="mask1_613_541" style="mask-type:luminance" maskUnits="userSpaceOnUse" x="17" y="29" width="13" height="26">
<path d="M29.6885 29.9733L17.5256 42.1317L29.6885 54.2902V29.9733Z" fill="white"/>
</mask>
<g mask="url(#mask1_613_541)">
<path d="M29.6885 29.9688H17.5256V54.2902H29.6885V29.9688Z" fill="url(#paint0_linear_613_541)"/>
</g>
<mask id="mask2_613_541" style="mask-type:luminance" maskUnits="userSpaceOnUse" x="29" y="29" width="13" height="26">
<path d="M29.6885 54.2902L41.8514 42.1317L29.6885 29.9733V54.2902Z" fill="white"/>
</mask>
<g mask="url(#mask2_613_541)">
<path d="M41.8514 29.9688H29.6885V54.2902H41.8514V29.9688Z" fill="url(#paint1_linear_613_541)"/>
</g>
<mask id="mask3_613_541" style="mask-type:luminance" maskUnits="userSpaceOnUse" x="5" y="17" width="13" height="26">
<path d="M17.5256 42.1317L5.36719 29.9733L17.5256 17.8104V42.1317Z" fill="white"/>
</mask>
<g mask="url(#mask3_613_541)">
<path d="M17.5301 17.8104H5.36719V42.1317H17.5301V17.8104Z" fill="url(#paint2_linear_613_541)"/>
</g>
<mask id="mask4_613_541" style="mask-type:luminance" maskUnits="userSpaceOnUse" x="17" y="17" width="13" height="26">
<path d="M17.5256 17.8104L29.6885 29.9733L17.5256 42.1317V17.8104Z" fill="white"/>
</mask>
<g mask="url(#mask4_613_541)">
<path d="M29.6885 17.8104H17.5256V42.1317H29.6885V17.8104Z" fill="url(#paint3_linear_613_541)"/>
</g>
<mask id="mask5_613_541" style="mask-type:luminance" maskUnits="userSpaceOnUse" x="41" y="5" width="14" height="25">
<path d="M54.0099 5.65198L41.8514 17.8104L54.0099 29.9733V5.65198Z" fill="white"/>
</mask>
<g mask="url(#mask5_613_541)">
<path d="M54.0099 5.65198H41.847V29.9733H54.0099V5.65198Z" fill="url(#paint4_linear_613_541)"/>
</g>
<mask id="mask6_613_541" style="mask-type:luminance" maskUnits="userSpaceOnUse" x="41" y="17" width="14" height="26">
<path d="M41.8514 17.8104L54.0099 29.9733L41.8514 42.1317V17.8104Z" fill="white"/>
</mask>
<g mask="url(#mask6_613_541)">
<path d="M54.0099 17.8104H41.847V42.1317H54.0099V17.8104Z" fill="url(#paint5_linear_613_541)"/>
</g>
<mask id="mask7_613_541" style="mask-type:luminance" maskUnits="userSpaceOnUse" x="29" y="17" width="13" height="26">
<path d="M41.8514 42.1317L29.6885 29.9733L41.8514 17.8104V42.1317Z" fill="white"/>
</mask>
<g mask="url(#mask7_613_541)">
<path d="M41.8514 17.8104H29.6885V42.1317H41.8514V17.8104Z" fill="url(#paint6_linear_613_541)"/>
</g>
<path fill-rule="evenodd" clip-rule="evenodd" d="M4.00537 4.29016L16.1683 16.4486L4.00537 28.6115V4.29016Z" fill="#C72127"/>
<path d="M60.7165 4.29016H59.3502V54.2679H60.7165V4.29016Z" fill="#231F20"/>
<path d="M88.1309 19.2434H90.3561V39.3547H86.3508V21.0102C86.3508 20.5381 86.5383 20.0853 86.8722 19.7515C87.206 19.4176 87.6588 19.2301 88.1309 19.2301M81.4554 19.2301C81.0003 19.1932 80.5479 19.3274 80.1866 19.6064C79.8253 19.8854 79.581 20.2892 79.5016 20.7388L75.5542 34.2635L70.4496 19.2301H66.3552L73.5337 39.3547H77.539L84.3615 19.2301H81.4554ZM92.3588 39.3547H96.3641V25.919L104.375 39.3502H108.38V19.2301H104.375V32.6613L96.3641 19.2301H94.1389C93.6668 19.2301 93.214 19.4176 92.8802 19.7515C92.5463 20.0853 92.3588 20.5381 92.3588 21.0102V39.3547Z" fill="#C72127"/>
<path d="M230.374 22.7637H236.373V39.3547H240.378V22.7637H246.377V19.2301H232.136C231.664 19.2301 231.211 19.4176 230.877 19.7515C230.544 20.0853 230.356 20.5381 230.356 21.0102V22.7904M214.424 36.0792C211.811 36.0792 210.458 35.0467 210.312 32.9639H206.351C206.471 37.2141 209.141 39.368 214.424 39.368C219.47 39.368 222.11 37.4722 222.345 33.6538C222.461 31.1823 221.405 29.5757 219.177 28.834C217.618 28.3016 216.031 27.8558 214.424 27.4989C211.811 26.9159 210.218 25.959 210.258 24.7263C210.307 23.231 211.691 22.5011 213.818 22.5011C215.55 22.5011 216.751 23.0485 217.428 24.1655C217.581 24.517 217.837 24.8143 218.162 25.019C218.486 25.2237 218.864 25.3263 219.248 25.3137H221.535C221.3 21.2683 218.865 19.2746 214.17 19.2568C209.239 19.2568 206.422 21.1615 206.369 25.2648C206.333 27.8505 208.594 29.7152 212.497 30.6809C213.939 31.0458 215.287 31.4019 216.462 31.7445C217.637 32.0872 218.278 32.7192 218.278 33.6671C218.313 35.247 217.049 36.0525 214.442 36.0525L214.424 36.0792ZM200.036 25.3983C200.036 27.3476 198.972 28.0685 197.072 28.0685H192.359V22.7681H197.312C199.106 22.7681 200.053 23.5202 200.053 25.3582L200.036 25.3983ZM204.094 25.0111C204.094 20.8678 201.847 19.2701 197.793 19.2701H190.383C189.835 19.292 189.318 19.5256 188.939 19.9216C188.561 20.3176 188.351 20.8451 188.353 21.393V39.3547H192.359V31.5398H196.618C198.981 31.5398 199.413 32.3097 199.555 34.7352C199.528 35.8728 199.586 37.0108 199.729 38.1397C199.748 38.5623 199.856 38.9761 200.045 39.3547H204.446C204.244 39.1965 204.082 38.9935 203.972 38.7617C203.863 38.53 203.808 38.2759 203.814 38.0196L203.64 34.0854C203.63 33.0611 203.426 32.048 203.04 31.0992C202.587 30.4394 201.928 29.9493 201.166 29.7063C203.04 29.1722 204.112 27.5167 204.112 24.9711L204.094 25.0111ZM183.707 28.8384C183.694 29.2796 183.51 29.6984 183.194 30.0059C182.877 30.3134 182.453 30.4853 182.012 30.4851H176.369V35.692H186.369V39.3947H172.368V21.393C172.368 20 173.031 19.2301 174.379 19.2301H186.369V22.7904H176.369V27.0672H183.778V28.7717L183.707 28.8384ZM226.128 19.2835H228.353V39.3547H224.348V21.0102C224.35 20.7761 224.398 20.5446 224.489 20.329C224.58 20.1134 224.713 19.9179 224.88 19.7538C225.047 19.5897 225.245 19.4601 225.462 19.3725C225.68 19.2849 225.912 19.2411 226.146 19.2434L226.128 19.2835ZM110.361 31.838C110.361 41.9226 126.36 41.7935 126.36 31.838V19.2301H122.354V31.3752C122.354 37.2853 114.344 37.2096 114.344 31.3752V19.2301H112.118C111.646 19.2301 111.193 19.4176 110.86 19.7515C110.526 20.0853 110.338 20.5381 110.338 21.0102L110.361 31.838ZM128.362 39.3547H132.368V25.919L140.378 39.3502H144.384V19.2301H140.378V32.6613L132.368 19.2301H130.142C129.67 19.2301 129.218 19.4176 128.884 19.7515C128.55 20.0853 128.362 20.5381 128.362 21.0102V39.3547ZM148.135 19.2434H150.361V39.3547H146.355V21.0102C146.359 20.5404 146.548 20.0911 146.881 19.7601C147.215 19.4291 147.666 19.2434 148.135 19.2434ZM167.486 19.2434C166.395 19.2434 165.821 19.7641 165.532 20.7521L161.584 34.2768L156.458 19.2301H152.363L159.524 39.3547H163.529L170.352 19.2301L167.486 19.2434ZM259.377 39.3547V31.838L266.377 19.2301H263.013C262.611 19.2157 262.215 19.3244 261.877 19.5416C261.539 19.7587 261.275 20.0739 261.122 20.445L257.472 27.8994L253.391 19.2301H248.376L255.376 31.838V39.3547H259.377Z" fill="#010101"/>
</g>
<defs>
<linearGradient id="paint0_linear_613_541" x1="23.6093" y1="54.2902" x2="23.6093" y2="29.9688" gradientUnits="userSpaceOnUse">
<stop stop-color="#134D8B"/>
<stop offset="1" stop-color="#213164"/>
</linearGradient>
<linearGradient id="paint1_linear_613_541" x1="35.7677" y1="29.9688" x2="35.7677" y2="54.2902" gradientUnits="userSpaceOnUse">
<stop stop-color="#134D8B"/>
<stop offset="1" stop-color="#213164"/>
</linearGradient>
<linearGradient id="paint2_linear_613_541" x1="11.4464" y1="17.8104" x2="11.4464" y2="42.1317" gradientUnits="userSpaceOnUse">
<stop stop-color="#134D8B"/>
<stop offset="1" stop-color="#213164"/>
</linearGradient>
<linearGradient id="paint3_linear_613_541" x1="23.6093" y1="42.1317" x2="23.6093" y2="17.8104" gradientUnits="userSpaceOnUse">
<stop stop-color="#134D8B"/>
<stop offset="1" stop-color="#213164"/>
</linearGradient>
<linearGradient id="paint4_linear_613_541" x1="47.9307" y1="29.9688" x2="47.9307" y2="5.65198" gradientUnits="userSpaceOnUse">
<stop stop-color="#134D8B"/>
<stop offset="1" stop-color="#213164"/>
</linearGradient>
<linearGradient id="paint5_linear_613_541" x1="47.9307" y1="42.1317" x2="47.9307" y2="17.8104" gradientUnits="userSpaceOnUse">
<stop stop-color="#134D8B"/>
<stop offset="1" stop-color="#213164"/>
</linearGradient>
<linearGradient id="paint6_linear_613_541" x1="35.7677" y1="17.8104" x2="35.7677" y2="42.1317" gradientUnits="userSpaceOnUse">
<stop stop-color="#134D8B"/>
<stop offset="1" stop-color="#213164"/>
</linearGradient>
</defs>
</svg>
